<?xml version="1.0" encoding="UTF-8"?>
<svg width="22px" height="21px" viewBox="0 0 22 21" version="1.1" xmlns="http://www.w3.org/2000/svg" xmlns:xlink="http://www.w3.org/1999/xlink">
    <!-- Generator: Sketch 52.2 (67145) - http://www.bohemiancoding.com/sketch -->
    <title>basicInfo</title>
    <desc>Created with Sketch.</desc>
    <g id="Page-1" stroke="none" stroke-width="1" fill="none" fill-rule="evenodd">
        <g id="Apple-TV" transform="translate(-281.000000, -107.000000)" fill="#3E2AD1">
            <g id="basicInfo" transform="translate(281.000000, 107.000000)">
                <path d="M17.0145872,3 L1.98615989,3 C0.889234074,3 1.24547234e-16,3.81097127 0,4.81135503 L0,19.188645 C1.24547234e-16,20.1890287 0.889234074,21 1.98615989,21 L17.0145872,21 C18.1112212,20.9996238 19.0000001,20.1887627 19,19.188645 L19,4.81135503 C19.0000001,3.81123728 18.1112212,3.00037618 17.0145872,3 Z M3.43643513,6.75828918 C3.43643485,6.48400136 3.68002868,6.26154171 3.98078637,6.26116579 L8.95515072,6.26116579 C9.25620019,6.26116579 9.50024901,6.48373551 9.50024901,6.75828918 L9.50024901,7.39417108 C9.50024901,7.66872475 9.25620019,7.89129447 8.95515072,7.89129447 L3.98078637,7.89129447 C3.68012587,7.89091871 3.4365722,7.66859733 3.43643513,7.39439818 L3.43643513,6.75828918 Z M3.43643513,11.6818319 C3.43643513,11.4072783 3.68048395,11.1847086 3.98153343,11.1847086 L11.5494102,11.1847086 C11.6940656,11.1846483 11.8328152,11.2370282 11.935102,11.3303126 C12.0373888,11.423597 12.0948236,11.550135 12.0947575,11.682059 L12.0947575,12.317941 C12.0948236,12.449865 12.0373888,12.576403 11.935102,12.6696874 C11.8328152,12.7629718 11.6940656,12.8153517 11.5494102,12.8152914 L3.98078637,12.8152914 C3.68002868,12.8149155 3.43643485,12.5924559 3.43643513,12.3181681 L3.43643513,11.6818319 Z M15.5311927,17.2414837 C15.5311927,17.5160374 15.2871438,17.7386071 14.9860944,17.7386071 L3.98078637,17.7386071 C3.68012587,17.7382313 3.4365722,17.51591 3.43643513,17.2417108 L3.43643513,16.5735806 C3.43643513,16.4417353 3.49386497,16.31529 3.59609073,16.2220613 C3.69831649,16.1288326 3.83696437,16.0764572 3.98153343,16.0764572 L14.9850983,16.0764572 C15.2861478,16.0764572 15.5301966,16.299027 15.5301966,16.5735806 L15.5311927,17.2414837 Z" id="Shape" fill-rule="nonzero"></path>
                <path d="M20.3332799,0 L8.6667201,0 C7.74618848,0 7,0.732595106 7,1.63636364 L7,3.27272727 L8.6667201,3.27272727 C8.6667201,2.36895874 9.41218716,1.63636364 10.3334402,1.63636364 L18.6665598,1.63636364 C19.5870914,1.63636364 20.3332799,2.36895874 20.3332799,3.27272727 L20.3332799,14.7272727 C20.3332799,15.6269549 19.8088077,16.3570528 18.6814691,16.3634093 L18.6814691,18 L20.3332799,18 C21.2545329,18 22,17.2674049 22,16.3636364 L22,1.63636364 C22,0.732595106 21.2545329,0 20.3332799,0 Z" id="Path"></path>
            </g>
        </g>
    </g>
</svg>