<?xml version="1.0" encoding="UTF-8"?>
<svg width="24px" height="18px" viewBox="0 0 24 18" version="1.1" xmlns="http://www.w3.org/2000/svg" xmlns:xlink="http://www.w3.org/1999/xlink">
    <!-- Generator: Sketch 52.2 (67145) - http://www.bohemiancoding.com/sketch -->
    <title>chart-table</title>
    <desc>Created with Sketch.</desc>
    <g id="Page-1" stroke="none" stroke-width="1" fill="none" fill-rule="evenodd">
        <g id="Apple-TV" transform="translate(-327.000000, -110.000000)" fill="#3E2AD1">
            <path d="M348,110 L330,110 C328.343146,110 327,111.343146 327,113 L327,125 C327,126.656854 328.343146,128 330,128 L348,128 C349.656854,128 351,126.656854 351,125 L351,113 C351,111.343146 349.656854,110 348,110 Z M334.38,120.22 L336.95,118.16 C337.915972,117.39048 339.30551,117.467915 340.18,118.34 L340.48,118.64 C340.644233,118.790013 340.895767,118.790013 341.06,118.64 L345.06,115.22 C345.331522,114.987777 345.706308,114.91805 346.043179,115.037083 C346.380051,115.156117 346.62783,115.445827 346.693179,115.797083 C346.758529,116.14834 346.631522,116.507777 346.36,116.74 L342.36,120.16 C341.393347,120.980785 339.95909,120.924284 339.06,120.03 L338.76,119.73 C338.597291,119.585981 338.352709,119.585981 338.19,119.73 L335.62,121.79 C335.188154,122.114418 334.576731,122.037285 334.238987,121.61578 C333.901242,121.194275 333.959246,120.580741 334.37,120.23 L334.38,120.22 Z M348,126 L330,126 C329.447715,126 329,125.552285 329,125 L329,113 C329,112.447715 329.447715,112 330,112 C330.552285,112 331,112.447715 331,113 L331,124 L348,124 C348.552285,124 349,124.447715 349,125 C349,125.552285 348.552285,126 348,126 Z" id="chart-table"></path>
        </g>
    </g>
</svg>