<?xml version="1.0" encoding="UTF-8"?>
<svg width="23px" height="23px" viewBox="0 0 23 23" version="1.1" xmlns="http://www.w3.org/2000/svg" xmlns:xlink="http://www.w3.org/1999/xlink">
    <!-- Generator: Sketch 52.2 (67145) - http://www.bohemiancoding.com/sketch -->
    <title>kpi</title>
    <desc>Created with Sketch.</desc>
    <g id="Page-1" stroke="none" stroke-width="1" fill="none" fill-rule="evenodd">
        <g id="Apple-TV" transform="translate(-666.000000, -105.000000)" fill="#3E2AD1" fill-rule="nonzero">
            <g id="kpi" transform="translate(666.000000, 105.000000)">
                <path d="M17.9103284,17.9103284 L17.9103284,12.75932 L15.3341852,12.75932 L15.3341852,17.9103284 L17.9103284,17.9103284 Z M12.7580421,17.9103284 L12.7580421,5.09222736 L10.2419579,5.09222736 L10.2419579,17.9103284 L12.7580421,17.9103284 Z M7.66709262,17.9103284 L7.66709262,8.92577367 L5.0909495,8.92577367 L5.0909495,17.9103284 L7.66709262,17.9103284 Z M20.4251347,0 C21.1040984,0 21.7029835,0.2594033 22.2217901,0.778209901 C22.7405967,1.2970165 23,1.89590162 23,2.57486526 L23,20.4251347 C23,21.1040984 22.7405967,21.7029835 22.2217901,22.2217901 C21.7029835,22.7405967 21.1040984,23 20.4251347,23 L2.57486526,23 C1.89590162,23 1.2970165,22.7405967 0.778209901,22.2217901 C0.2594033,21.7029835 8.51218276e-16,21.1040984 0,20.4251347 L0,2.57486526 C0,1.89590162 0.2594033,1.2970165 0.778209901,0.778209901 C1.2970165,0.2594033 1.89590162,1.70243655e-15 2.57486526,8.51218276e-16 L20.4251347,0 Z" id="Shape"></path>
            </g>
        </g>
    </g>
</svg>