<?xml version="1.0" encoding="UTF-8"?>
<svg width="24px" height="21px" viewBox="0 0 24 21" version="1.1" xmlns="http://www.w3.org/2000/svg" xmlns:xlink="http://www.w3.org/1999/xlink">
    <!-- Generator: Sketch 52.2 (67145) - http://www.bohemiancoding.com/sketch -->
    <title>message</title>
    <desc>Created with Sketch.</desc>
    <g id="Page-1" stroke="none" stroke-width="1" fill="none" fill-rule="evenodd">
        <g id="Apple-TV" transform="translate(-379.000000, -108.000000)" fill="#3E2AD1">
            <path d="M400,108 L382,108 C380.343146,108 379,109.343146 379,111 L379,122 C379,123.656854 380.343146,125 382,125 L382.26,125 C382.536142,125 382.76,125.223858 382.76,125.5 L382.76,128.31 C382.763934,128.590053 382.934422,128.840802 383.193406,128.947442 C383.45239,129.054083 383.75001,128.996084 383.95,128.8 L387.17,125.58 C387.54335,125.204412 388.050423,124.992233 388.58,124.99 L400,124.99 C401.656854,124.99 403,123.646854 403,121.99 L403,111 C403,109.343146 401.656854,108 400,108 Z M392,118.9 L385,118.9 C384.447715,118.9 384,118.452285 384,117.9 C384,117.347715 384.447715,116.9 385,116.9 L392,116.9 C392.552285,116.9 393,117.347715 393,117.9 C393,118.452285 392.552285,118.9 392,118.9 Z M396,114.9 L385,114.9 C384.447715,114.9 384,114.452285 384,113.9 C384,113.347715 384.447715,112.9 385,112.9 L396,112.9 C396.552285,112.9 397,113.347715 397,113.9 C397,114.452285 396.552285,114.9 396,114.9 Z" id="message"></path>
        </g>
    </g>
</svg>