<?xml version="1.0" encoding="UTF-8"?>
<svg width="18px" height="22px" viewBox="0 0 18 22" version="1.1" xmlns="http://www.w3.org/2000/svg" xmlns:xlink="http://www.w3.org/1999/xlink">
    <!-- Generator: Sketch 52.2 (67145) - http://www.bohemiancoding.com/sketch -->
    <title>order</title>
    <desc>Created with Sketch.</desc>
    <g id="Page-1" stroke="none" stroke-width="1" fill="none" fill-rule="evenodd">
        <g id="Apple-TV" transform="translate(-237.000000, -106.000000)" fill="#3E2AD1" fill-rule="nonzero">
            <g id="order" transform="translate(237.000000, 106.000000)">
                <path d="M16.4846727,2.05680472 L13.2786184,2.05680472 C13.1271513,1.37988166 12.5212828,0.859171581 11.8144362,0.859171581 L10.2240313,0.859171581 C10.0220751,0.3384615 9.54242919,4.10114076e-10 8.98704971,0 C8.43167022,-4.10114076e-10 7.95202434,0.338461556 7.75006817,0.859171581 L6.1344188,0.859171581 C5.42757217,0.859171581 4.82170365,1.37988166 4.67023651,2.05680472 L1.46418228,2.05680472 C0.631113084,2.05680472 -1.98827368e-10,2.75976333 0,3.61893491 L0,20.4378698 C0,21.2970414 0.656357543,22 1.46418228,22 L16.4594282,22 C17.2924974,22 17.999344,21.2970414 17.999344,20.4378698 L17.999344,3.61893491 C18.0245885,2.75976333 17.3177419,2.05680472 16.4846727,2.05680472 Z M9.01229428,2.81183432 C9.69389639,2.81183432 10.2240313,3.38461539 10.2240313,4.06153844 C10.2240313,4.76449705 9.66865182,5.31124257 9.01229428,5.31124263 C8.33069217,5.31124263 7.80055725,4.73846156 7.80055719,4.06153844 C7.80055714,3.38461533 8.33069216,2.81183432 9.01229428,2.81183432 Z M13.6320417,15.7514793 C13.6320417,16.0639054 13.3795965,16.3242604 13.0766622,16.3242604 L4.94792628,16.3242604 C4.644992,16.3242604 4.3925468,16.0639054 4.3925468,15.7514793 L4.3925468,15.2307692 C4.3925468,14.9183432 4.64499199,14.6579881 4.94792628,14.6579881 L13.0766622,14.6579881 C13.3795965,14.6579881 13.6320417,14.9183432 13.6320417,15.2307692 L13.6320417,15.7514793 Z M13.6320417,10.4662722 C13.6320417,10.7786982 13.3795965,11.0390532 13.0766622,11.0390532 L4.94792628,11.0390532 C4.644992,11.0390532 4.3925468,10.7786982 4.3925468,10.4662722 L4.3925468,9.94556215 C4.3925468,9.63313608 4.64499199,9.37278107 4.94792628,9.37278107 L13.0766622,9.37278107 C13.3795965,9.37278107 13.6320417,9.63313608 13.6320417,9.94556215 L13.6320417,10.4662722 Z" id="Shape"></path>
            </g>
        </g>
    </g>
</svg>