<?xml version="1.0" encoding="UTF-8"?>
<svg width="25px" height="21px" viewBox="0 0 25 21" version="1.1" xmlns="http://www.w3.org/2000/svg" xmlns:xlink="http://www.w3.org/1999/xlink">
    <!-- Generator: Sketch 52.2 (67145) - http://www.bohemiancoding.com/sketch -->
    <title>palyer</title>
    <desc>Created with Sketch.</desc>
    <g id="Page-1" stroke="none" stroke-width="1" fill="none" fill-rule="evenodd">
        <g id="Apple-TV" transform="translate(-501.000000, -106.000000)" fill="#3E2AD1">
            <path d="M510.39,126.22 C510.493167,126.372616 510.504059,126.569597 510.418348,126.732657 C510.332637,126.895717 510.164208,126.99844 509.98,127 L503,127 C501.895431,127 501,126.104569 501,125 L501,120.23 C501.045764,119.406914 501.54187,118.676215 502.29,118.33 C504.876909,117.266763 507.694112,116.887922 510.47,117.23 C510.656383,117.249917 510.815971,117.372407 510.883401,117.547303 C510.95083,117.722199 510.914774,117.920119 510.79,118.06 C510.307448,118.550922 510.022649,119.2024 509.99,119.89 L509.99,124.89 C510.005996,125.360478 510.143822,125.81875 510.39,126.22 Z M508.5,106 C506.014719,106 504,108.014719 504,110.5 C504,112.985281 506.014719,115 508.5,115 C510.985281,115 513,112.985281 513,110.5 C513,108.014719 510.985281,106 508.5,106 Z M514,127 L523.42,127 C524.524569,127 525.42,126.104569 525.42,125 L525.42,121 C525.376893,120.18136 524.884181,119.453839 524.14,119.11 L524.14,119.11 C520.629744,117.699405 516.710256,117.699405 513.2,119.11 L513.2,119.11 C512.486884,119.475801 512.027701,120.199014 512,121 L512,125 C512,125.530433 512.210714,126.039141 512.585786,126.414214 C512.960859,126.789286 513.469567,127 514,127 Z M519,108 C516.790861,108 515,109.790861 515,112 C515,114.209139 516.790861,116 519,116 C521.209139,116 523,114.209139 523,112 C523,109.790861 521.209139,108 519,108 Z" id="palyer"></path>
        </g>
    </g>
</svg>