<?xml version="1.0" encoding="UTF-8"?>
<svg width="26px" height="19px" viewBox="0 0 26 19" version="1.1" xmlns="http://www.w3.org/2000/svg" xmlns:xlink="http://www.w3.org/1999/xlink">
    <!-- Generator: Sketch 52.2 (67145) - http://www.bohemiancoding.com/sketch -->
    <title>system-support</title>
    <desc>Created with Sketch.</desc>
    <g id="Page-1" stroke="none" stroke-width="1" fill="none" fill-rule="evenodd">
        <g id="Apple-TV" transform="translate(-622.000000, -110.000000)" fill="#3E2AD1">
            <path d="M647.42,113.166667 L647.42,121.611111 C647.42,123.360013 646.02089,124.777778 644.295,124.777778 L635.961667,124.777778 L635.961667,126.888889 L638.045,126.888889 C638.620297,126.888889 639.086667,127.361477 639.086667,127.944444 C639.086667,128.527412 638.620297,129 638.045,129 L631.795,129 C631.219703,129 630.753333,128.527412 630.753333,127.944444 C630.753333,127.361477 631.219703,126.888889 631.795,126.888889 L633.878333,126.888889 L633.878333,124.777778 L625.545,124.777778 C623.81911,124.777778 622.42,123.360013 622.42,121.611111 L622.42,113.166667 C622.42,111.417765 623.81911,110 625.545,110 L644.295,110 C646.02089,110 647.42,111.417765 647.42,113.166667 Z M635.000022,113 C632.790642,113 631,114.79064 631,117.000017 C631,119.209405 632.790642,121 635.000022,121 C637.209671,121 639,119.209405 639,117.000017 C639,114.79064 637.209414,113 635.000022,113 Z M634.037866,118.92144 L632.087864,117.178139 C631.970712,117.073405 631.970712,116.90359 632.087864,116.798845 L632.512119,116.419552 C632.629271,116.314807 632.819232,116.314807 632.936385,116.419552 L634.249999,117.593912 L637.063615,115.078551 C637.180768,114.973816 637.370729,114.973816 637.487881,115.078551 L637.912136,115.457844 C638.029288,115.562579 638.029288,115.732393 637.912136,115.837138 L634.462132,118.921451 C634.344968,119.026185 634.155019,119.026185 634.037866,118.92144 Z" id="system-support"></path>
        </g>
    </g>
</svg>