<?xml version="1.0" encoding="UTF-8"?>
<svg width="26px" height="25px" viewBox="0 0 26 25" version="1.1" xmlns="http://www.w3.org/2000/svg" xmlns:xlink="http://www.w3.org/1999/xlink">
    <!-- Generator: Sketch 52.2 (67145) - http://www.bohemiancoding.com/sketch -->
    <title>system-log</title>
    <desc>Created with Sketch.</desc>
    <g id="Page-1" stroke="none" stroke-width="1" fill="none" fill-rule="evenodd">
        <g id="Apple-TV" transform="translate(-561.000000, -104.000000)" fill="#3E2AD1" fill-rule="nonzero">
            <g id="system-log" transform="translate(561.420000, 104.000000)">
                <path d="M17.5648846,11.5074903 C18.4164574,11.5074903 19.2369334,11.6552432 20,11.9261235 L20,1.74102196 C20,0.778165401 19.2417175,0 18.3088147,0 L1.69118526,0 C0.755890444,0 0,0.78062795 0,1.74102196 L0,22.258978 C0,23.2218346 0.758282502,24 1.69118526,24 L11.7473986,24 C10.7188135,22.6825364 10.1016625,21.0104658 10.1016625,19.1881798 C10.1016625,14.9476708 13.443368,11.5074903 17.5648846,11.5074903 Z M2.7747877,5.68602504 C2.7747877,5.0728504 3.25798349,4.5778781 3.85121397,4.5778781 L15.9287167,4.5778781 C16.5243392,4.5778781 17.0051429,5.07531295 17.0051429,5.68602504 C17.0051429,6.29919967 16.5219471,6.79417197 15.9287167,6.79417197 L3.85121397,6.79417197 C3.25798349,6.79417197 2.7747877,6.29919967 2.7747877,5.68602504 Z M2.7747877,11.1331828 C2.7747877,10.5200082 3.25798349,10.0250359 3.85121397,10.0250359 L10.9149623,10.0250359 C11.5105849,10.0250359 11.9913886,10.5224708 11.9913886,11.1331828 C11.9913886,11.7463575 11.5081928,12.2413298 10.9149623,12.2413298 L3.85121397,12.2413298 C3.25798349,12.2413298 2.7747877,11.7463575 2.7747877,11.1331828 Z M9.25487382,16.5803407 C9.25487382,17.1935153 8.77167803,17.6884876 8.17844755,17.6884876 L3.85121397,17.6884876 C3.25559144,17.6884876 2.7747877,17.1910527 2.7747877,16.5803407 C2.7747877,15.967166 3.25798349,15.4721937 3.85121397,15.4721937 L8.17844755,15.4721937 C8.77167803,15.4721937 9.25487382,15.9696286 9.25487382,16.5803407 Z" id="Shape"></path>
                <path d="M19,13 C15.6865672,13 13,15.6865672 13,19 C13,22.3134328 15.6865672,25 19,25 C22.3134328,25 25,22.3134328 25,19 C25,15.6865672 22.3134328,13 19,13 Z M22.6865672,19.5223881 C22.6865672,19.89801 22.3830846,20.2014925 22.0074627,20.2014925 L18.800995,20.2014925 C18.4253731,20.2014925 18.1218905,19.89801 18.1218905,19.5223881 L18.1218905,15.1243781 C18.1218905,14.7487562 18.4253731,14.4452736 18.800995,14.4452736 C19.1766169,14.4452736 19.4800995,14.7487562 19.4800995,15.1243781 L19.4800995,18.8432836 L22.0049751,18.8432836 C22.380597,18.8432836 22.6865672,19.1492537 22.6865672,19.5223881 Z" id="Shape"></path>
            </g>
        </g>
    </g>
</svg>