<?xml version="1.0" encoding="UTF-8"?>
<svg width="28px" height="28px" viewBox="0 0 28 28" version="1.1" xmlns="http://www.w3.org/2000/svg" xmlns:xlink="http://www.w3.org/1999/xlink">
    <!-- Generator: Sketch 52.2 (67145) - http://www.bohemiancoding.com/sketch -->
    <title>web</title>
    <desc>Created with Sketch.</desc>
    <g id="Page-1" stroke="none" stroke-width="1" fill="none" fill-rule="evenodd">
        <g id="Apple-TV" transform="translate(-438.000000, -106.000000)">
            <g id="web" transform="translate(435.000000, 104.000000)">
                <rect id="Rectangle" fill="#000000" opacity="0" x="0" y="0" width="33" height="33"></rect>
                <path d="M17,2 C24.728,2 31,8.27200001 31,16 C31,23.728 24.728,30 17,30 C9.27200001,30 3,23.728 3,16 C3,8.3 9.258,2 17,2 Z M23.104,18.8 L27.836,18.8 C28.06,17.904 28.2,16.966 28.2,16 C28.2,15.034 28.06,14.096 27.836,13.2 L23.104,13.2 C23.216,14.124 23.3,15.048 23.3,16 C23.3,16.952 23.216,17.876 23.104,18.8 Z M20.626,26.584 C23.202,25.702 25.344,23.91 26.688,21.6 L22.558,21.6 C22.11,23.35 21.466,25.03 20.626,26.584 Z M20.276,18.8 C20.402,17.876 20.5,16.952 20.5,16 C20.5,15.048 20.402,14.11 20.276,13.2 L13.724,13.2 C13.584,14.11 13.5,15.048 13.5,16 C13.5,16.952 13.584,17.876 13.724,18.8 L20.276,18.8 Z M17,27.144 C18.162,25.464 19.1,23.602 19.674,21.6 L14.326,21.6 C14.9,23.602 15.838,25.464 17,27.144 Z M11.4,10.4 C11.89,8.65000001 12.52,6.97000001 13.36,5.41600001 C10.798,6.284 8.64200001,8.07600002 7.31200002,10.4 L11.4,10.4 Z M7.31200002,21.6 C8.64200001,23.91 10.798,25.702 13.36,26.584 C12.52,25.03 11.89,23.35 11.4,21.6 L7.31200002,21.6 Z M6.16400001,18.8 L10.896,18.8 C10.784,17.876 10.7,16.952 10.7,16 C10.7,15.048 10.784,14.124 10.896,13.2 L6.16400001,13.2 C5.94,14.096 5.80000002,15.034 5.80000002,16 C5.80000002,16.966 5.94,17.904 6.16400001,18.8 Z M17,4.84200002 C15.838,6.52200002 14.9,8.39800001 14.326,10.4 L19.674,10.4 C19.1,8.39800001 18.162,6.52200002 17,4.84200002 Z M26.688,10.4 C25.344,8.07600002 23.202,6.29800001 20.626,5.41600001 C21.466,6.97000001 22.11,8.65000001 22.558,10.4 L26.688,10.4 Z" id="Shape" fill="#3E2AD1" fill-rule="nonzero"></path>
            </g>
        </g>
    </g>
</svg>