<?xml version="1.0" encoding="UTF-8"?>
<svg width="87px" height="34px" viewBox="0 0 87 34" version="1.1" xmlns="http://www.w3.org/2000/svg" xmlns:xlink="http://www.w3.org/1999/xlink">
    <!-- Generator: Sketch 52.2 (67145) - http://www.bohemiancoding.com/sketch -->
    <title>Group 2</title>
    <desc>Created with Sketch.</desc>
    <g id="Page-1" stroke="none" stroke-width="1" fill="none" fill-rule="evenodd">
        <g id="Artboard" transform="translate(-3678.000000, -6265.000000)">
            <g id="Group-2" transform="translate(3678.000000, 6265.000000)">
                <text id="TMS" font-family="STYuanti-SC-Bold, Yuanti SC" font-size="24" font-weight="bold" fill="#000000">
                    <tspan x="43" y="26">TMS</tspan>
                </text>
                <rect id="Rectangle" fill="#2F59FF" fill-rule="nonzero" x="0" y="0" width="34" height="34" rx="7"></rect>
                <path d="M22.8563345,14.7750511 C22.7329785,14.574631 22.5260587,14.4542347 22.3045484,14.4542347 L21.6413438,14.4542347 C21.2745917,14.4542347 20.9781393,14.776493 20.9781393,15.1751705 L20.9781393,19.500785 C20.9781393,19.8994624 21.2745917,20.2217207 21.6413438,20.2217207 L24.294162,20.2217207 C24.6609141,20.2217207 24.9573665,19.8994624 24.9573665,19.500785 L24.9573665,18.4193813 C24.9573665,18.277357 24.9182374,18.1374955 24.8459481,18.019262 L22.8563345,14.7750511 Z M24.294162,19.3344152 L21.6413438,19.3344152 L21.6413438,15.1197139 L22.3045484,15.1197139 L24.294162,18.2807399 L24.294162,19.3344152 Z M27.2759295,17.5275881 L24.6231114,13.2275689 C24.2530433,12.6277162 23.6336103,12.270098 22.9677529,12.270098 L20.3149348,12.270098 L20.3149348,10.8367583 C20.3149348,9.65138631 19.4222615,8.68674868 18.3253212,8.68674868 L8.37725323,8.68674868 C7.28031294,8.68674868 6.38763964,9.65138631 6.38763964,10.8367583 L6.38763964,18.7201267 C6.38763964,19.9054987 7.28031294,20.8701363 8.37725323,20.8701363 L8.37725323,23.0201459 C8.37725323,24.2055179 9.26992653,25.1701555 10.3668668,25.1701555 L11.1242464,25.1701555 C11.4206988,26.4035443 12.4506555,27.3201651 13.6835527,27.3201651 C14.9151235,27.3201651 15.9450801,26.4035443 16.2415326,25.1701555 L19.7445789,25.1701555 C20.0410313,26.4035443 21.070988,27.3201651 22.3038852,27.3201651 C23.535456,27.3201651 24.5654126,26.4035443 24.861865,25.1701555 L25.620571,25.1701555 C26.7175113,25.1701555 27.6101846,24.2055179 27.6101846,23.0201459 L27.6101846,18.7201267 C27.6101846,18.2944248 27.494787,17.881623 27.2759295,17.5275881 Z M8.37725323,19.3344152 C8.01116433,19.3344152 7.7140487,19.0140638 7.7140487,18.6177453 L7.7140487,10.7343769 C7.7140487,10.3380584 8.01116433,10.017707 8.37725323,10.017707 L18.3253212,10.017707 C18.6920733,10.017707 18.9885257,10.3380584 18.9885257,10.7343769 L18.9885257,18.6177453 C18.9885257,19.0140638 18.6920733,19.3344152 18.3253212,19.3344152 L8.37725323,19.3344152 Z M13.6828895,25.9892068 C12.9500485,25.9892068 12.3564804,25.3432483 12.3564804,24.5473352 C12.3564804,23.7514222 12.9500485,23.1054637 13.6828895,23.1054637 C14.4150673,23.1054637 15.0092985,23.7514222 15.0092985,24.5473352 C15.0092985,25.3432483 14.4144041,25.9892068 13.6828895,25.9892068 Z M22.3045484,25.9892068 C21.5717074,25.9892068 20.9781393,25.3432483 20.9781393,24.5473352 C20.9781393,23.7514222 21.5717074,23.1054637 22.3045484,23.1054637 C23.0367262,23.1054637 23.6309574,23.7514222 23.6309574,24.5473352 C23.6309574,25.3432483 23.0367262,25.9892068 22.3045484,25.9892068 Z M26.2837756,23.0579295 C26.2837756,23.4522259 25.9873231,23.7709429 25.620571,23.7709429 L24.8625283,23.7709429 C24.5660758,22.5438469 23.5361192,21.6319028 22.3045484,21.6319028 C21.0716512,21.6319028 20.0416945,22.5438469 19.7452421,23.7709429 L16.2421958,23.7709429 C15.9457433,22.5438469 14.9157867,21.6319028 13.6842159,21.6319028 C12.4513187,21.6319028 11.421362,22.5438469 11.1249096,23.7709429 L10.3668668,23.7709429 C10.0007779,23.7709429 9.70366229,23.4522259 9.70366229,23.0579295 L9.70366229,20.9188894 L18.3253212,20.9188894 C19.4222615,20.9188894 20.3149348,19.9591734 20.3149348,18.7798492 L20.3149348,13.7887555 L22.9677529,13.7887555 C23.1892632,13.7887555 23.396183,13.9078288 23.5195391,14.1060465 L26.1723572,18.3841268 C26.2446465,18.501061 26.2837756,18.6393856 26.2837756,18.7798492 L26.2837756,23.0579295 Z" id="Shape" fill="#FFFFFF" fill-rule="nonzero"></path>
            </g>
        </g>
    </g>
</svg>