<?xml version="1.0" encoding="UTF-8"?>
<svg width="82px" height="26px" viewBox="0 0 82 26" version="1.1" xmlns="http://www.w3.org/2000/svg" xmlns:xlink="http://www.w3.org/1999/xlink">
    <!-- Generator: Sketch 52.2 (67145) - http://www.bohemiancoding.com/sketch -->
    <title>Group 2</title>
    <desc>Created with Sketch.</desc>
    <g id="页面1" stroke="none" stroke-width="1" fill="none" fill-rule="evenodd">
        <g id="Artboard" transform="translate(-25.000000, -30.000000)" fill="#FFFFFF">
            <g id="Group-2" transform="translate(25.000000, 26.000000)">
                <g id="Group" transform="translate(36.000000, 0.000000)" font-family="STYuanti-SC-Bold, Yuanti SC" font-size="24" font-weight="bold" letter-spacing="1">
                    <text id="TMS">
                        <tspan x="0" y="25">TMS</tspan>
                    </text>
                </g>
                <g id="truck2" transform="translate(0.000000, 4.000000)" fill-rule="nonzero">
                    <path d="M23.28,8.445 C23.105625,8.167 22.813125,8 22.5,8 L21.5625,8 C21.0440625,8 20.625,8.447 20.625,9 L20.625,15 C20.625,15.553 21.0440625,16 21.5625,16 L25.3125,16 C25.8309375,16 26.25,15.553 26.25,15 L26.25,13.5 C26.25,13.303 26.1946875,13.109 26.0925,12.945 L23.28,8.445 Z M25.3125,15 L21.5625,15 L21.5625,9 L22.5,9 L25.3125,13.5 L25.3125,15 Z M29.5275,12.336 L25.7775,6.336 C25.254375,5.499 24.37875,5 23.4375,5 L19.6875,5 L19.6875,3 C19.6875,1.346 18.425625,0 16.875,0 L2.8125,0 C1.261875,0 0,1.346 0,3 L0,14 C0,15.654 1.261875,17 2.8125,17 L2.8125,20 C2.8125,21.654 4.074375,23 5.625,23 L6.695625,23 C7.1146875,24.721 8.570625,26 10.3134375,26 C12.054375,26 13.5103125,24.721 13.929375,23 L18.88125,23 C19.3003125,24.721 20.75625,26 22.4990625,26 C24.24,26 25.6959375,24.721 26.115,23 L27.1875,23 C28.738125,23 30,21.654 30,20 L30,14 C30,13.406 29.836875,12.83 29.5275,12.336 Z M2.8125,15 C2.295,15 1.875,14.553 1.875,14 L1.875,3 C1.875,2.447 2.295,2 2.8125,2 L16.875,2 C17.3934375,2 17.8125,2.447 17.8125,3 L17.8125,14 C17.8125,14.553 17.3934375,15 16.875,15 L2.8125,15 Z M10.3134375,24 C9.2775,24 8.4384375,23.104 8.4384375,22 C8.4384375,20.896 9.2775,20 10.3134375,20 C11.3484375,20 12.1884375,20.896 12.1884375,22 C12.1884375,23.104 11.3475,24 10.3134375,24 Z M22.5,24 C21.4640625,24 20.625,23.104 20.625,22 C20.625,20.896 21.4640625,20 22.5,20 C23.535,20 24.375,20.896 24.375,22 C24.375,23.104 23.535,24 22.5,24 Z M28.125,20 C28.125,20.553 27.7059375,21 27.1875,21 L26.1159375,21 C25.696875,19.279 24.2409375,18 22.5,18 C20.7571875,18 19.30125,19.279 18.8821875,21 L13.9303125,21 C13.51125,19.279 12.0553125,18 10.314375,18 C8.5715625,18 7.115625,19.279 6.6965625,21 L5.625,21 C5.1075,21 4.6875,20.553 4.6875,20 L4.6875,17 L16.875,17 C18.425625,17 19.6875,15.654 19.6875,14 L19.6875,7 L23.4375,7 C23.750625,7 24.043125,7.167 24.2175,7.445 L27.9675,13.445 C28.0696875,13.609 28.125,13.803 28.125,14 L28.125,20 Z" id="Shape"></path>
                </g>
            </g>
        </g>
    </g>
</svg>